<svg viewBox="0 0 88 32" fill="none" xmlns="http://www.w3.org/2000/svg">
<path d="M40.1909 4C39.3391 4 38.685 4.24925 38.2284 4.74661C37.7714 5.24455 37.5432 5.95726 37.5432 6.88467V25.041C37.5432 25.9689 37.7714 26.6816 38.2284 27.1789C38.685 27.6768 39.3391 27.9256 40.1909 27.9256H53.8404C54.8731 27.9256 55.7143 27.0705 55.7143 26.0447V25.2489C55.7143 24.2241 54.8753 23.3914 53.8404 23.3914H52.2998V23.38H43.113V18.2913H50.4718C51.5046 18.2913 52.3458 17.4363 52.3458 16.4104V15.6146C52.3458 14.5897 51.5069 13.7573 50.4718 13.7573H43.113V8.54558H53.3717V8.53418H53.8404C54.8731 8.53418 55.7143 7.67904 55.7143 6.65336V5.85756C55.7143 4.83254 54.8753 4 53.8404 4H40.1909Z" fill="#FFFFFF"/>
<path d="M66.5677 15.1233C66.5677 14.456 67.1152 13.9142 67.7895 13.9142H68.095C68.7694 13.9142 69.3169 14.456 69.3169 15.1233V26.7306C69.3169 27.3979 68.7694 27.9397 68.095 27.9397H67.7895C67.1152 27.9397 66.5677 27.3979 66.5677 26.7306V15.1233Z" fill="#FFFFFF"/>
<path d="M61.1929 27.9799C59.9313 27.9799 58.9086 26.9673 58.9086 25.7185C58.9086 24.4695 59.9313 23.457 61.1929 23.457C62.4545 23.457 63.4774 24.4695 63.4774 25.7185C63.4774 26.9673 62.4545 27.9799 61.1929 27.9799Z" fill="#FFFFFF"/>
<path d="M71.3726 20.9269C71.3726 18.7987 72.3224 16.8903 73.8253 15.5937C73.8738 15.5519 73.9305 15.5331 73.9859 15.5331C74.1121 15.5331 74.2318 15.6303 74.2318 15.775V26.0786C74.2318 26.287 73.9839 26.397 73.8253 26.2601C72.3224 24.9635 71.3726 23.055 71.3726 20.9269Z" fill="#FFFFFF"/>
<path fill-rule="evenodd" clip-rule="evenodd" d="M20.7596 4.06006C20.7179 4.06006 20.6765 4.06149 20.6355 4.06405C20.5888 4.06149 20.5418 4.06006 20.4944 4.06006H19.69C18.3576 4.06006 17.2775 5.12895 17.2775 6.44755V19.3961L17.2765 19.3947L14.0827 14.5255L17.2765 19.3932L11.8127 11.0622L11.8117 11.0628L8.17023 5.51103C7.62042 4.7856 6.88734 4.06006 5.75472 4.06006H4.40995C3.08091 4.06006 2 5.12866 2 6.4466V26.0839C2 27.1077 2.8393 27.9397 3.87463 27.9397H5.21796C6.25156 27.9397 7.09249 27.1088 7.09249 26.0839V12.2724L8.03148 13.7035L8.0215 13.7105L15.2695 24.745L15.2899 24.7654L15.7937 25.5332C15.8515 25.6214 15.9196 25.7301 15.9953 25.8511C16.245 26.2501 16.5782 26.7827 16.9062 27.1538C17.3339 27.6375 17.9079 27.9397 18.6153 27.9397H20.7641C21.9464 27.9397 22.906 26.9882 22.906 25.8146V18.2915H30.1075C31.1404 18.2915 31.9814 17.4364 31.9814 16.4106V15.6148C31.9814 14.5898 31.1425 13.7574 30.1075 13.7574H22.8932V8.59425H33.6291C34.662 8.59425 35.5031 7.7391 35.5031 6.71333V5.91762C35.5031 4.8927 34.6642 4.06006 33.6291 4.06006H20.7596ZM15.2899 24.7654L15.2695 24.745L10.6493 17.6929L15.2899 24.7654Z" fill="#FFFFFF"/>
<path d="M80.6645 27.3382V14.5158C80.6645 14.3779 80.7788 14.2731 80.9078 14.2731C80.9351 14.2731 80.9631 14.2778 80.9908 14.2879C81.291 14.3973 81.5818 14.5261 81.8615 14.6727C82.0049 14.7479 82.0942 14.8958 82.0942 15.0565V26.7134C82.0942 26.9305 81.9694 27.1273 81.7743 27.2262C81.5215 27.3542 81.26 27.4679 80.9908 27.566C80.8324 27.6238 80.6645 27.5051 80.6645 27.3382Z" fill="#FFFFFF"/>
<path d="M75.3065 14.6078C75.2524 14.6347 75.1987 14.6623 75.1454 14.6906C75.0228 14.7556 74.9465 14.882 74.9465 15.0195V26.8033C74.9465 26.9598 75.0332 27.1044 75.1731 27.1778C75.2172 27.2009 75.2617 27.2238 75.3065 27.2461C75.4691 27.3272 75.6613 27.21 75.6613 27.0298V14.8239C75.6613 14.6836 75.5447 14.5816 75.4164 14.5816C75.38 14.5816 75.3425 14.5899 75.3065 14.6078Z" fill="#FFFFFF"/>
<path d="M84.2386 24.3713V17.4825C84.2386 17.3317 84.3608 17.2405 84.485 17.2406C84.5648 17.2406 84.6455 17.2782 84.695 17.362C85.3135 18.4087 85.668 19.6268 85.668 20.9269C85.668 22.227 85.3135 23.445 84.695 24.4917C84.5686 24.7056 84.2386 24.619 84.2386 24.3713Z" fill="#FFFFFF"/>
<path d="M82.8089 15.6728V26.1634C82.8089 26.336 83.0135 26.4307 83.1463 26.3189C83.2222 26.2549 83.2968 26.1894 83.37 26.1224C83.4677 26.0329 83.5238 25.9071 83.5238 25.7752V16.0374C83.5238 15.9319 83.4785 15.8317 83.4006 15.7597C83.3132 15.6788 83.2239 15.6 83.1326 15.5236C83.0945 15.4917 83.0504 15.4774 83.0071 15.4774C82.9055 15.4774 82.8089 15.5566 82.8089 15.6728Z" fill="#FFFFFF"/>
<path d="M77.0909 14.1962C77.0909 14.0777 77.1775 13.9774 77.2953 13.9572C77.6934 13.8892 78.1027 13.8537 78.5204 13.8537C78.938 13.8537 79.3472 13.8892 79.7452 13.9572C79.8632 13.9774 79.9499 14.0777 79.9499 14.1962V27.6576C79.9499 27.7759 79.8632 27.8763 79.7452 27.8964C79.3472 27.9646 78.938 28 78.5204 28C78.1027 28 77.6934 27.9646 77.2953 27.8964C77.1775 27.8763 77.0909 27.7759 77.0909 27.6576V14.1962Z" fill="#FFFFFF"/>
</svg>
