<svg viewBox="0 0 106 32" fill="none" xmlns="http://www.w3.org/2000/svg">
<path d="M83.1438 13.4878C82.2915 13.4878 81.5996 14.1725 81.5996 15.0159V29.6851C81.5996 30.5284 82.2915 31.2131 83.1438 31.2131H83.5299C84.3821 31.2131 85.0741 30.5284 85.0741 29.6851V15.0159C85.0741 14.1725 84.3821 13.4878 83.5299 13.4878H83.1438Z" fill="url(#paint0_linear)"/>
<path d="M71.9199 28.4062C71.9199 29.9845 73.2123 31.2642 74.8068 31.2642C76.4012 31.2642 77.6939 29.9845 77.6939 28.4062C77.6939 26.8278 76.4012 25.5482 74.8068 25.5482C73.2123 25.5482 71.9199 26.8278 71.9199 28.4062Z" fill="url(#paint1_linear)"/>
<path d="M64.9237 0.958679H56.216H51.9589H48.2659C47.1895 0.958679 46.3628 1.27368 45.7859 1.90224C45.2083 2.53152 44.9199 3.43224 44.9199 4.60428V27.55C44.9199 28.7227 45.2083 29.6233 45.7859 30.2519C46.3628 30.8812 47.1895 31.1956 48.2659 31.1956H51.9589H56.216H63.5691H65.5161C66.8211 31.1956 67.8842 30.1148 67.8842 28.8185V27.8128C67.8842 26.5176 66.8239 25.4653 65.5161 25.4653H63.5691V25.4508H51.9589V19.0199H61.2589C62.5641 19.0199 63.6271 17.9393 63.6271 16.6428V15.6371C63.6271 14.3418 62.5669 13.2898 61.2589 13.2898H51.9589V6.70332H64.9237V6.68892H65.5161C66.8211 6.68892 67.8842 5.6082 67.8842 4.31196V3.30624C67.8842 2.01084 66.8239 0.958679 65.5161 0.958679H64.9237Z" fill="url(#paint2_linear)"/>
<path d="M90.7716 15.6106C88.8723 17.2493 87.6719 19.6611 87.6719 22.3506C87.6719 25.0401 88.8723 27.4521 90.7716 29.0907C90.972 29.2637 91.2852 29.1246 91.2852 28.8614V15.8398C91.2852 15.6569 91.134 15.534 90.9746 15.534C90.9045 15.534 90.8328 15.5578 90.7716 15.6106Z" fill="url(#paint3_linear)"/>
<path d="M23.7081 1.03434C23.6554 1.03434 23.6031 1.03614 23.5513 1.03938C23.4923 1.03614 23.4328 1.03434 23.3729 1.03434H22.3564C20.6725 1.03434 19.3075 2.38518 19.3075 4.05162V20.4158L19.3062 20.4141L15.27 14.2604L19.3062 20.4122L12.4011 9.8835L12.3999 9.88434L7.79785 2.86806C7.10301 1.95126 6.17656 1.03434 4.74516 1.03434H3.04566C1.36603 1.03434 0 2.38482 0 4.05042V7.07022V28.8677C0 30.1616 1.06069 31.2131 2.36913 31.2131H4.06682C5.37307 31.2131 6.43582 30.163 6.43582 28.8677V11.413C6.43582 11.413 6.88753 12.1015 7.62251 13.2215L7.60989 13.2304L16.7698 27.1757L10.9308 18.2633C12.8846 21.241 15.1076 24.6289 16.7954 27.2011L16.7698 27.1757L16.7956 27.2014C17.0176 27.5398 17.2306 27.8643 17.4322 28.1717C17.7464 28.6507 18.2979 29.6086 18.8383 30.2199C19.3788 30.8312 20.1042 31.2131 20.9982 31.2131H23.7138C25.208 31.2131 26.4207 30.0106 26.4207 28.5274V23.1674V19.0198H35.5219C36.8273 19.0198 37.8901 17.9392 37.8901 16.6427V15.637C37.8901 14.3417 36.8299 13.2897 35.5219 13.2897H26.4045V6.76458H39.9725C41.2778 6.76458 42.3407 5.68386 42.3407 4.3875V3.3819C42.3407 2.08662 41.2805 1.03434 39.9725 1.03434H23.7081Z" fill="url(#paint4_linear)"/>
<path d="M99.416 14.2482V30.4529C99.416 30.6639 99.6281 30.8139 99.8283 30.7408C100.169 30.6168 100.499 30.4732 100.818 30.3114C101.065 30.1864 101.223 29.9377 101.223 29.6633V14.9315C101.223 14.7285 101.11 14.5415 100.929 14.4465C100.575 14.2612 100.208 14.0983 99.8283 13.9601C99.7933 13.9474 99.758 13.9414 99.7234 13.9414C99.5604 13.9414 99.416 14.0739 99.416 14.2482Z" fill="url(#paint5_linear)"/>
<path d="M92.6444 14.3647C92.576 14.3986 92.5081 14.4336 92.4407 14.4693C92.2859 14.5514 92.1895 14.7112 92.1895 14.885V29.7772C92.1895 29.975 92.2989 30.1578 92.4757 30.2505C92.5315 30.2797 92.5878 30.3086 92.6444 30.3368C92.8498 30.4393 93.0927 30.2912 93.0927 30.0634V14.6378C93.0927 14.4604 92.9454 14.3316 92.7833 14.3316C92.7372 14.3316 92.6899 14.342 92.6444 14.3647Z" fill="url(#paint6_linear)"/>
<path d="M103.932 17.9976V26.7036C103.932 27.0167 104.349 27.1262 104.508 26.8558C105.29 25.533 105.738 23.9937 105.738 22.3506C105.738 20.7076 105.29 19.1682 104.508 17.8454C104.446 17.7395 104.344 17.692 104.243 17.692C104.086 17.6919 103.932 17.8071 103.932 17.9976Z" fill="url(#paint7_linear)"/>
<path d="M102.125 15.7103V28.9683C102.125 29.1863 102.384 29.3061 102.551 29.1647C102.647 29.0838 102.742 29.001 102.834 28.9164C102.958 28.8033 103.028 28.6443 103.028 28.4776V16.1711C103.028 16.0378 102.971 15.9112 102.873 15.8202C102.762 15.718 102.649 15.6184 102.534 15.5218C102.486 15.4815 102.43 15.4634 102.376 15.4634C102.247 15.4634 102.125 15.5636 102.125 15.7103Z" fill="url(#paint8_linear)"/>
<path d="M95.1568 13.5425C95.0079 13.568 94.8984 13.6948 94.8984 13.8446V30.8568C94.8984 31.0064 95.0079 31.1332 95.1568 31.1586C95.6598 31.2448 96.1772 31.2896 96.705 31.2896C97.2328 31.2896 97.7499 31.2448 98.2529 31.1586C98.4021 31.1332 98.5116 31.0064 98.5116 30.8568V13.8446C98.5116 13.6948 98.4021 13.568 98.2529 13.5425C97.7499 13.4565 97.2328 13.4116 96.705 13.4116C96.1772 13.4116 95.6598 13.4565 95.1568 13.5425Z" fill="url(#paint9_linear)"/>
<defs>
<linearGradient id="paint0_linear" x1="0.0315712" y1="-0.251514" x2="106.219" y2="29.1686" gradientUnits="userSpaceOnUse">
<stop stop-color="#5BCFF6"/>
<stop offset="1" stop-color="#7BEB4E"/>
</linearGradient>
<linearGradient id="paint1_linear" x1="-2.1252" y1="7.53329" x2="104.062" y2="36.9533" gradientUnits="userSpaceOnUse">
<stop stop-color="#5BCFF6"/>
<stop offset="1" stop-color="#7BEB4E"/>
</linearGradient>
<linearGradient id="paint2_linear" x1="-0.210355" y1="0.624931" x2="105.977" y2="30.0451" gradientUnits="userSpaceOnUse">
<stop stop-color="#5BCFF6"/>
<stop offset="1" stop-color="#7BEB4E"/>
</linearGradient>
<linearGradient id="paint3_linear" x1="0.566364" y1="-2.17893" x2="106.753" y2="27.2406" gradientUnits="userSpaceOnUse">
<stop stop-color="#5BCFF6"/>
<stop offset="1" stop-color="#7BEB4E"/>
</linearGradient>
<linearGradient id="paint4_linear" x1="-2.71017" y1="9.64454" x2="103.477" y2="39.0647" gradientUnits="userSpaceOnUse">
<stop stop-color="#5BCFF6"/>
<stop offset="1" stop-color="#7BEB4E"/>
</linearGradient>
<linearGradient id="paint5_linear" x1="1.17625" y1="-4.38642" x2="107.365" y2="25.0348" gradientUnits="userSpaceOnUse">
<stop stop-color="#5BCFF6"/>
<stop offset="1" stop-color="#7BEB4E"/>
</linearGradient>
<linearGradient id="paint6_linear" x1="0.69523" y1="-2.63495" x2="106.88" y2="26.7837" gradientUnits="userSpaceOnUse">
<stop stop-color="#5BCFF6"/>
<stop offset="1" stop-color="#7BEB4E"/>
</linearGradient>
<linearGradient id="paint7_linear" x1="1.49151" y1="-5.52689" x2="107.68" y2="23.894" gradientUnits="userSpaceOnUse">
<stop stop-color="#5BCFF6"/>
<stop offset="1" stop-color="#7BEB4E"/>
</linearGradient>
<linearGradient id="paint8_linear" x1="1.36287" y1="-5.06244" x2="107.552" y2="24.3586" gradientUnits="userSpaceOnUse">
<stop stop-color="#5BCFF6"/>
<stop offset="1" stop-color="#7BEB4E"/>
</linearGradient>
<linearGradient id="paint9_linear" x1="0.965964" y1="-3.62488" x2="107.153" y2="25.7952" gradientUnits="userSpaceOnUse">
<stop stop-color="#5BCFF6"/>
<stop offset="1" stop-color="#7BEB4E"/>
</linearGradient>
</defs>
</svg>
